<svg width="28" height="24" viewBox="0 0 28 24" fill="none" xmlns="http://www.w3.org/2000/svg"><path d="M12 24H0V8.002A8 8 0 0 1 8.002 0h12v15.999z" fill="url(#a)"/><path d="M12 15.999h8.002C20.002 20.549 17.138 24 12 24z" fill="#378EFF"/><path d="M20 6.667H10a3.333 3.333 0 1 0 0 6.666h10z" fill="#14141F"/><path d="M20 5.333h4.667a3.333 3.333 0 0 1 0 6.667H20z" fill="#5DDFA9"/><path d="M20 5.333H10A3.333 3.333 0 0 0 10 12h10z" fill="#37B982"/><defs><linearGradient id="a" x1="2.103" y1="2.46" x2="16.777" y2="20.182" gradientUnits="userSpaceOnUse"><stop stop-color="#0866F5"/><stop offset="1" stop-color="#0043A6"/></linearGradient></defs></svg>