<svg width="72" height="72" viewBox="0 0 72 72" fill="none" xmlns="http://www.w3.org/2000/svg"><rect width="72" height="72" rx="36" fill="#fff"/><path d="M52 14.29H18a4 4 0 0 0-4 4v33.42a4 4 0 0 0 4 4h34a4 4 0 0 0 4-4V18.29a4 4 0 0 0-4-4" fill="#5DDFA9"/><path d="M35.36 14.29v41.42H18c-2.21 0-4-1.79-4-4V18.29c0-2.21 1.79-4 4-4z" fill="#83F8C7"/><path d="M48.36 28.11h-26a2 2 0 0 0-2 2v16.62a2 2 0 0 0 2 2h26a2 2 0 0 0 2-2V30.11a2 2 0 0 0-2-2" fill="#0043A6"/><path d="M43.8 29.61h-3.75v-3.75h-9.38v3.75h-3.75v-3.75c0-2.07 1.68-3.75 3.75-3.75h9.38c2.07 0 3.75 1.68 3.75 3.75z" fill="#0050C7"/><path d="M48.36 28.11h-26a2 2 0 0 0-2 2v8.2a2 2 0 0 0 2 2h26a2 2 0 0 0 2-2v-8.2a2 2 0 0 0-2-2" fill="#0866F5"/><path d="M48.36 28.11h-26a2 2 0 0 0-2 2v16.62a2 2 0 0 0 2 2h26a2 2 0 0 0 2-2V30.11a2 2 0 0 0-2-2" fill="#0043A6"/><path d="M22.36 28.11h13v20.62h-13c-1.1 0-2-.9-2-2V30.11c0-1.1.9-2 2-2" fill="#0050C7"/><path d="M43.8 29.61h-3.75v-3.75h-9.38v3.75h-3.75v-3.75c0-2.07 1.68-3.75 3.75-3.75h9.38c2.07 0 3.75 1.68 3.75 3.75z" fill="#0050C7"/><path d="M35.36 22.11h-4.69c-2.07 0-3.75 1.68-3.75 3.75v3.75h3.75v-3.75h4.69z" fill="#0050C7"/><path d="M22.36 28.11h26c1.1 0 2 .9 2 2v6.2c0 2.21-1.79 4-4 4h-22c-2.21 0-4-1.79-4-4v-6.2c0-1.1.9-2 2-2" fill="#0866F5"/><path d="M22.36 28.11h13v12.2h-11c-2.21 0-4-1.79-4-4v-6.2c0-1.1.9-2 2-2" fill="#378EFF"/><path d="M28.47 37.5h-.01a1.87 1.87 0 0 0-1.87 1.87v1.89a1.87 1.87 0 0 0 1.87 1.87h.01a1.87 1.87 0 0 0 1.87-1.87v-1.89a1.87 1.87 0 0 0-1.87-1.87m13.8 0h-.01a1.87 1.87 0 0 0-1.87 1.87v1.88a1.87 1.87 0 0 0 1.87 1.87h.01a1.87 1.87 0 0 0 1.87-1.87v-1.88a1.87 1.87 0 0 0-1.87-1.87" fill="#fff"/></svg>