<svg width="81" height="12" viewBox="0 0 81 12" fill="none" xmlns="http://www.w3.org/2000/svg"><path d="M1.883 6.691h1.31l2.492 4.32h1.728L4.82 6.518A2.95 2.95 0 0 0 6.794 3.74a2.95 2.95 0 0 0-1.57-2.592A2.3 2.3 0 0 0 4.158.902H.4v10.11h1.483zM5.296 3.74c0 .807-.648 1.469-1.454 1.469H1.883V2.285h1.959a1.45 1.45 0 0 1 1.454 1.454m5.356 6.883c.518.288 1.08.432 1.656.432.316 0 .648-.057.979-.144a3.44 3.44 0 0 0 2.059-1.67l-1.31-.706a1.9 1.9 0 0 1-1.167.936 1.92 1.92 0 0 1-1.512-.158 2 2 0 0 1-.59-.504l5.025-1.469s-.028-.273-.158-.734c-.1-.317-.245-.62-.418-.893a3.5 3.5 0 0 0-1.252-1.166A3.44 3.44 0 0 0 9.27 5.928a3.43 3.43 0 0 0-.289 2.635s.303 1.31 1.67 2.06m-.072-3.988a1.9 1.9 0 0 1 1.166-.936 1.9 1.9 0 0 1 1.498.158c.244.13.446.288.604.504L10.35 7.382a2.1 2.1 0 0 1 .23-.748m9.331 4.464c.087 0 .173 0 .26-.015.791-.057 1.497-.417 1.943-.979.375-.46.548-1.037.476-1.598-.188-1.498-1.628-1.8-2.39-1.973-.202-.043-.39-.072-.52-.13-.546-.216-.431-.504-.388-.605.086-.187.475-.345.922-.259.072.015.446.173.446.389l1.498-.029c-.03-1.08-1.023-1.685-1.656-1.814-1.124-.23-2.204.245-2.578 1.137-.432 1.037.058 2.088 1.18 2.564.231.1.505.158.778.216.864.172 1.181.316 1.224.69.03.16-.028.318-.144.476-.201.23-.532.403-.921.432-.648.058-1.282-.302-1.34-.763l-1.468.187c.144 1.18 1.325 2.074 2.678 2.074m7.095 0a2.87 2.87 0 0 0 1.483-.418v.331h1.497V4.272H28.49v3.845c0 .82-.663 1.483-1.483 1.483s-1.484-.662-1.484-1.483V4.214H24.04v3.903a2.974 2.974 0 0 0 2.967 2.98m6.348-4.003c0-.82.605-1.483 1.354-1.483.734 0 1.339.663 1.339 1.483v3.917h1.497V7.094c0-.82.605-1.483 1.34-1.483.749 0 1.353.663 1.353 1.483v3.917h1.483V7.094c0-1.641-1.267-2.966-2.836-2.966-.835 0-1.57.374-2.088.98a2.75 2.75 0 0 0-2.088-.98c-.49 0-.95.13-1.354.36v-.274h-1.483v6.797h1.483zm11.537-2.88h-1.483v6.797h1.483zm.244-1.713a.977.977 0 0 0-.979-.965.97.97 0 0 0-.979.965c0 .533.432.965.98.965a.977.977 0 0 0 .978-.965m6.989 8.481V9.514h-2.937l3.21-5.314H46.74v1.454h3.038l-3.197 5.328zm3.513-.36c.518.288 1.08.432 1.656.432.316 0 .648-.057.979-.144a3.44 3.44 0 0 0 2.059-1.67l-1.31-.706a1.9 1.9 0 0 1-1.167.936 1.92 1.92 0 0 1-1.512-.158 2 2 0 0 1-.59-.504l5.025-1.469s-.029-.273-.158-.734c-.1-.317-.245-.62-.418-.893a3.5 3.5 0 0 0-1.252-1.166 3.44 3.44 0 0 0-4.694 1.382 3.43 3.43 0 0 0-.289 2.635s.303 1.31 1.67 2.06m-.072-3.988a1.9 1.9 0 0 1 1.166-.936 1.9 1.9 0 0 1 1.498.158c.244.13.446.288.604.504l-3.499 1.022c.029-.259.1-.504.23-.748m8.138.459c0-.82.605-1.483 1.354-1.483.734 0 1.339.663 1.339 1.483v3.917h1.497V7.094c0-.82.605-1.483 1.34-1.483.748 0 1.353.663 1.353 1.483v3.917h1.483V7.094c0-1.641-1.267-2.966-2.836-2.966-.836 0-1.57.374-2.088.98a2.75 2.75 0 0 0-2.088-.98c-.49 0-.95.13-1.354.36v-.274h-1.483v6.797h1.483zm11.623 3.528c.518.288 1.08.432 1.656.432.317 0 .648-.057.98-.144a3.44 3.44 0 0 0 2.058-1.67l-1.31-.706a1.9 1.9 0 0 1-1.166.936 1.92 1.92 0 0 1-1.512-.158 2 2 0 0 1-.59-.504l5.025-1.469s-.029-.273-.159-.734c-.1-.317-.244-.62-.417-.893a3.5 3.5 0 0 0-1.253-1.166 3.44 3.44 0 0 0-4.694 1.382 3.43 3.43 0 0 0-.288 2.635s.302 1.31 1.67 2.06m-.072-3.988a1.9 1.9 0 0 1 1.166-.936 1.9 1.9 0 0 1 1.498.158c.245.13.446.288.605.504l-3.5 1.022c.03-.259.101-.504.231-.748" fill="#3A3A43"/></svg>