<svg width="24" height="24" viewBox="0 0 3.84 3.84" xmlns="http://www.w3.org/2000/svg" aria-hidden="true" class="iconify iconify--noto"><path d="m2.041.217.404.921a.21.21 0 0 0 .175.126l.984.088a.135.135 0 0 1 .075.231l-.741.622a.21.21 0 0 0-.071.206l.215 1.008a.136.136 0 0 1-.197.143l-.858-.502a.21.21 0 0 0-.214 0l-.859.502a.136.136 0 0 1-.197-.143l.215-1.008a.21.21 0 0 0-.071-.206l-.74-.622a.136.136 0 0 1 .075-.231l.984-.088a.21.21 0 0 0 .175-.126l.404-.921a.135.135 0 0 1 .243 0" fill="#fdd835"/><path d="M2.012 1.193 1.944.514c-.003-.038-.01-.103.05-.103.048 0 .074.1.074.1l.205.545c.077.207.046.278-.029.32-.086.048-.212.01-.232-.184" fill="#ffff8d"/><path d="m2.858 2.145.589-.459c.029-.024.082-.063.04-.107-.033-.035-.123.015-.123.015l-.515.201c-.154.053-.256.132-.265.231-.012.132.107.234.275.119" fill="#f4b400"/></svg>